<?xml version="1.0" encoding="utf-8"?>
<svg version="1.1" xmlns:xlink="http://www.w3.org/1999/xlink" width="20px" height="12px" xmlns="http://www.w3.org/2000/svg">
  <g transform="matrix(1 0 0 1 -106 -381 )">
    <path d="M 20 0.5454545454545454  C 20 0.2437500000000002  19.680803571428573 0  19.285714285714285 0  L 0.7142857142857142 0  C 0.3191964285714285 0  0 0.2437500000000002  0 0.5454545454545454  L 0 11.454545454545455  C 0 11.756250000000001  0.3191964285714285 12  0.7142857142857142 12  L 19.285714285714285 12  C 19.680803571428573 12  20 11.756250000000001  20 11.454545454545455  L 20 0.5454545454545454  Z M 19.01116071428571 1.5221590909090912  L 18.392857142857142 1.888636363636364  L 18.392857142857142 10.772727272727273  L 1.6071428571428572 10.772727272727273  L 1.6071428571428572 1.888636363636364  L 0.9910714285714286 1.5221590909090912  L 1.8683035714285712 0.6613636363636366  L 2.8236607142857144 1.2289772727272732  L 17.17857142857143 1.2289772727272732  L 18.13392857142857 0.6613636363636366  L 19.01116071428571 1.5221590909090912  Z M 18.13169642857143 0.6613636363636366  L 17.17857142857143 1.2272727272727273  L 10 5.488636363636363  L 2.821428571428571 1.2272727272727273  L 1.8660714285714293 0.6596590909090907  L 0.9888392857142863 1.520454545454545  L 1.6049107142857149 1.886931818181818  L 9.229910714285715 6.414204545454544  C 9.680803571428573 6.681818181818182  10.3125 6.681818181818182  10.763392857142858 6.414204545454544  L 18.392857142857142 1.888636363636364  L 19.008928571428573 1.5221590909090912  L 18.13169642857143 0.6613636363636366  Z " fill-rule="nonzero" fill="#d7d7d7" stroke="none" transform="matrix(1 0 0 1 106 381 )" />
  </g>
</svg>